<?xml version="1.0" encoding="iso-8859-1"?>
<!-- Generator: Adobe Illustrator 19.0.0, SVG Export Plug-In . SVG Version: 6.00 Build 0)  -->
<svg version="1.1" id="Layer_1" xmlns="http://www.w3.org/2000/svg" xmlns:xlink="http://www.w3.org/1999/xlink" x="0px" y="0px"
	 viewBox="0 0 512 512" style="enable-background:new 0 0 512 512;" xml:space="preserve">
<path style="fill:#00B4D7;" d="M255.888,429.722v74.315c-117.312,0-212.329-95.017-212.329-212.329S138.576,79.379,255.888,79.379
	h69.007V15.68l138.014,100.856L324.895,217.393v-63.699h-69.007c-76.226,0-138.014,61.788-138.014,138.014
	S179.662,429.722,255.888,429.722z"/>
<g>
	<path style="fill:#0093C4;" d="M255.888,121.845c-76.226,0-138.014,61.788-138.014,138.014c0,5.394,0.387,10.692,0.989,15.925
		c7.906-68.713,66.193-122.089,137.025-122.089h76.969l0.238-31.849C333.095,121.845,255.888,121.845,255.888,121.845z"/>
	<polygon style="fill:#0093C4;" points="324.895,217.393 462.909,116.537 441.118,100.612 324.895,185.544 	"/>
	<path style="fill:#0093C4;" d="M255.888,472.188c-111.936,0-203.361-86.566-211.526-196.405
		c-0.392,5.275-0.804,10.549-0.804,15.925c0,117.312,95.017,212.329,212.329,212.329V472.188z"/>
</g>
<path d="M263.85,512h-7.962c-58.864,0-114.191-22.908-155.787-64.505s-64.505-96.923-64.505-155.787s22.908-114.191,64.505-155.787
	s96.923-64.505,155.787-64.505h61.045V0l159.471,116.537L316.933,233.074v-71.417h-61.045c-71.711,0-130.052,58.341-130.052,130.052
	S184.177,421.76,255.888,421.76h7.962V512L263.85,512z M255.888,87.342c-54.61,0-105.937,21.252-144.526,59.841
	s-59.841,89.916-59.841,144.526s21.252,105.937,59.841,144.526c36.707,36.706,84.942,57.727,136.564,59.69V437.47
	c-76.802-4.15-138.014-67.943-138.014-145.762c0-80.492,65.484-145.976,145.976-145.976h76.969v55.981l116.557-85.176
	L332.857,31.361v55.981C332.857,87.342,255.888,87.342,255.888,87.342z"/>
<rect x="343.477" y="90" transform="matrix(-0.8 -0.6 0.6 -0.8 631.1423 406.3054)" style="fill:#FFFFFF;" width="79.623" height="15.925"/>
<g>
</g>
<g>
</g>
<g>
</g>
<g>
</g>
<g>
</g>
<g>
</g>
<g>
</g>
<g>
</g>
<g>
</g>
<g>
</g>
<g>
</g>
<g>
</g>
<g>
</g>
<g>
</g>
<g>
</g>
</svg>
